<svg xmlns="http://www.w3.org/2000/svg" viewBox="0 0 310 290.7"><symbol id="a" viewBox="-34 -34 68 68"><path transform="rotate(-30 0 0)" class="st0" d="M-24.9-24.9h49.8v49.8h-49.8z"/></symbol><symbol id="b" viewBox="-27.3 -21.6 54.5 43.1"><path class="st1" d="M27.3-21.6H-2.4l-24.9 43.2H2.4z"/></symbol><symbol id="c" viewBox="-36.4 -12.5 72.8 24.9"><path class="st2" d="M-6.7-12.5h-29.7l43.1 25h29.7z"/></symbol><g class="st3"><path class="front" d="M292.1 259.8l-42.3 24.4-24.5-42.2 42.3-24.4z"/><path class="side" d="M249.8 284.2h-29.1L196.3 242h29z"/><path class="top" d="M225.3 242h-29l42.3-24.4h29z"/><path class="front" d="M310 193.2l-42.4 24.4-24.4-42.2 42.3-24.4z"/><path class="side" d="M267.6 217.6h-29l-24.5-42.2h29.1z"/><path class="top" d="M243.2 175.4h-29.1l42.4-24.4h29z"/><path class="front" d="M238.6 217.6L196.3 242l-24.5-42.2 42.3-24.4z"/><path class="top" d="M171.8 199.8h-29l42.3-24.4h29z"/><path class="front" d="M256.5 151l-42.4 24.4-24.4-42.2 42.3-24.4z"/><path class="side" d="M214.1 175.4h-29l-24.5-42.2h29.1z"/><path class="top" d="M189.7 133.2h-29.1l42.4-24.4h29z"/><path class="side" d="M232.2 108.8h-29.1l-24.4-42.2h29.1z"/><path class="top" d="M82.6 290.7H53.5l42.3-24.3h29.1z"/><path class="side" d="M124.9 266.4H95.8l-24.4-42.3h29.1z"/><path class="top" d="M100.5 224.1H71.4l42.3-24.3h29.1z"/><g><path class="front" d="M185.1 175.4l-42.3 24.4-24.5-42.3 42.3-24.3z"/><path class="side" d="M142.8 199.8h-29.1l-24.4-42.3h29z"/><path class="top" d="M118.3 157.5h-29l42.3-24.3h29z"/></g><g><path class="front" d="M221 42.2l-42.3 24.4-24.4-42.2L196.6 0z"/><path class="side" d="M178.7 66.6h-29.1l-24.4-42.2h29.1z"/><path class="top" d="M154.3 24.4h-29.1L167.5 0h29.1z"/></g><g><path class="front" d="M95.8 266.4l-42.3 24.3-24.4-42.2 42.3-24.4z"/><path class="side" d="M53.5 290.7H24.4L0 248.5h29.1z"/><path class="top" d="M29.1 248.5H0l42.3-24.4h29.1z"/></g><g><path class="front" d="M113.9 199.8l-42.3 24.4-24.4-42.3 42.3-24.3z"/><path class="side" d="M71.6 224.2H42.5l-24.4-42.3h29.1z"/><path class="top" d="M47.2 181.9H18.1l42.3-24.3h29.1z"/></g><g><path class="front" d="M131.8 133.2l-42.3 24.4L65 115.3 107.3 91z"/><path class="side" d="M89.5 157.6H60.4L36 115.3h29z"/><path class="top" d="M65 115.3H36L78.3 91h29z"/></g><g><path class="front" d="M149.6 66.6L107.3 91 82.9 48.7l42.3-24.3z"/><path class="side" d="M107.3 91h-29L53.8 48.7h29.1z"/><path class="top" d="M82.9 48.7H53.8l42.3-24.3h29.1z"/></g></g></svg>